<svg id="Layer_1" data-name="Layer 1" xmlns="http://www.w3.org/2000/svg" viewBox="0 0 190 190"><defs><style>.cls-1{fill:#00a9e0;}</style></defs><title>icon_marinas</title><path class="cls-1" d="M90.93,82.35L87,74.58h0L70.85,42.85v66.79H104.8ZM67.17,42.85L50.63,109.64H67.17V42.85Zm92.91-12.94A92.15,92.15,0,1,0,187,95,91.76,91.76,0,0,0,160.08,29.92Zm-9,121.15A79.38,79.38,0,1,1,174.25,95,79,79,0,0,1,151.06,151.07Zm-58-101L88.48,68.52l4.57,9V50.07Zm22.19,66.38,2.15-2.14,1.54-1.54H30.11l17,18.89H99.94l13.6-13.53Zm16-5.89h9.33a3.74,3.74,0,0,1,3.73,3.36h3.52L120.5,60.11v29L131,109.73A3.72,3.72,0,0,1,131.27,110.57ZM117.53,60.11L113.67,75.7l3.86,7.6V60.11Zm23.07,54.21h-17.9a4.06,4.06,0,0,1-.89,1.36l-16.08,16h17.43l15.3-15.22Zm3.08,2.14a3.73,3.73,0,0,1-.43.53l-14.77,14.7h15.46l15.3-15.22H143.68Zm-34.91-7.76h10.16a4.16,4.16,0,0,1,3.78,2.53c0,0.07,0,.14.07,0.21h4.85l-0.44-.87L120.5,97.42h0l-3-5.84h0l-1.85-3.63L96.43,50.07V84.17l12,23.62A4.09,4.09,0,0,1,108.77,108.7Z"/></svg>